<?xml version="1.0" encoding="UTF-8" standalone="no"?>
<svg
   xmlns:dc="http://purl.org/dc/elements/1.1/"
   xmlns:cc="http://creativecommons.org/ns#"
   xmlns:rdf="http://www.w3.org/1999/02/22-rdf-syntax-ns#"
   xmlns:svg="http://www.w3.org/2000/svg"
   xmlns="http://www.w3.org/2000/svg"
   xmlns:sodipodi="http://sodipodi.sourceforge.net/DTD/sodipodi-0.dtd"
   xmlns:inkscape="http://www.inkscape.org/namespaces/inkscape"
   width="20mm"
   height="20mm"
   viewBox="0 0 20 20"
   version="1.1"
   id="svg889"
   inkscape:version="1.0.1 (0767f8302a, 2020-10-17)"
   sodipodi:docname="favicon.svg"
   inkscape:export-filename="/home/rslsync/Studium/ws2021/elea/code/elea/favicon48.png"
   inkscape:export-xdpi="60.959999"
   inkscape:export-ydpi="60.959999">
  <defs
     id="defs883" />
  <sodipodi:namedview
     id="base"
     pagecolor="#ffffff"
     bordercolor="#666666"
     borderopacity="1.0"
     inkscape:pageopacity="0.0"
     inkscape:pageshadow="2"
     inkscape:zoom="3.5359759"
     inkscape:cx="37.795276"
     inkscape:cy="41.709852"
     inkscape:document-units="mm"
     inkscape:current-layer="layer1"
     inkscape:document-rotation="0"
     showgrid="false"
     inkscape:window-width="1920"
     inkscape:window-height="1016"
     inkscape:window-x="0"
     inkscape:window-y="391"
     inkscape:window-maximized="1" />
  <metadata
     id="metadata886">
    <rdf:RDF>
      <cc:Work
         rdf:about="">
        <dc:format>image/svg+xml</dc:format>
        <dc:type
           rdf:resource="http://purl.org/dc/dcmitype/StillImage" />
        <dc:title></dc:title>
      </cc:Work>
    </rdf:RDF>
  </metadata>
  <g
     inkscape:label="Layer 1"
     inkscape:groupmode="layer"
     id="layer1">
    <g
       aria-label="E"
       id="text1454"
       style="font-style:normal;font-weight:normal;font-size:10.5833px;line-height:1.25;font-family:sans-serif;fill:#6b00c8;fill-opacity:1;stroke:none;stroke-width:0.264583">
      <path
         d="M 8.8398988,1.6813875 H 2.4793357 v 0.497415 h 0.1904994 c 0.6032481,0.010583 0.8043308,0.042333 0.8889972,0.1481662 0.0635,0.09525 0.0635,0.1164163 0.0635,0.6561646 v 5.0376506 c 0,0.5397483 0,0.5609149 -0.0635,0.6561646 -0.084666,0.105833 -0.2857491,0.1481662 -0.8889972,0.1481662 H 2.4793357 v 0.4974151 h 6.498146 l 0.211666,-2.825741 H 8.7234825 C 8.3213171,8.3806161 7.8874018,8.7827815 6.268157,8.8251147 H 5.5696592 C 4.9346612,8.8039481 4.7759117,8.6981151 4.8076616,8.3171163 V 5.6183749 h 0.211666 c 1.0900799,-0.042333 1.481662,0.3492489 1.5239952,1.5239952 H 7.0407379 V 3.6710478 H 6.5433228 c -0.0635,1.0371634 -0.4762485,1.449912 -1.481662,1.449912 H 4.8076616 V 2.7079675 C 4.7970783,2.2634689 4.9029113,2.1893858 5.4744095,2.1788025 H 6.0247411 C 7.7604022,2.1682192 8.1943175,2.549218 8.5329831,4.3801289 H 8.988065 Z"
         style="font-style:normal;font-variant:normal;font-weight:normal;font-stretch:normal;font-family:C059;-inkscape-font-specification:C059;stroke-width:0.264583;fill:#6b00c8;fill-opacity:1"
         id="path1521" />
    </g>
    <g
       id="text1470"
       style="font-style:normal;font-weight:normal;font-size:10.5833px;line-height:1.25;font-family:sans-serif;fill:#000000;fill-opacity:1;stroke:none;stroke-width:0.264583" />
    <g
       aria-label="L"
       id="text1493"
       style="font-style:normal;font-weight:normal;font-size:10.5833px;line-height:1.25;font-family:sans-serif;fill:#bd0000;fill-opacity:1;stroke:none;stroke-width:0.264583">
      <path
         d="m 18.005067,6.4227057 h -0.465665 c -0.349249,1.9049939 -0.825497,2.3706591 -2.465909,2.402409 H 14.628995 C 13.993997,8.8039481 13.835247,8.6981151 13.866997,8.3171163 v -5.333983 c 0,-0.529165 0,-0.5609149 0.0635,-0.6561646 0.08467,-0.105833 0.285749,-0.1375829 0.888997,-0.1481662 h 0.1905 v -0.497415 h -3.471323 v 0.497415 h 0.1905 c 0.603248,0.010583 0.80433,0.042333 0.888997,0.1481662 0.0635,0.09525 0.0635,0.1164163 0.0635,0.6561646 v 5.0376506 c 0,0.5397483 0,0.5609149 -0.0635,0.6561646 -0.08467,0.105833 -0.285749,0.1481662 -0.888997,0.1481662 h -0.1905 v 0.4974151 h 6.244147 z"
         style="font-style:normal;font-variant:normal;font-weight:normal;font-stretch:normal;font-family:C059;-inkscape-font-specification:C059;stroke-width:0.264583;fill:#bd0000;fill-opacity:1"
         id="path1524" />
    </g>
    <g
       aria-label="E"
       id="text1497"
       style="font-style:normal;font-weight:normal;font-size:10.5833px;line-height:1.25;font-family:sans-serif;fill:#039200;fill-opacity:1;stroke:none;stroke-width:0.264583">
      <path
         d="M 8.8398988,10.677219 H 2.4793357 v 0.497415 h 0.1904994 c 0.6032481,0.01058 0.8043308,0.04233 0.8889972,0.148166 0.0635,0.09525 0.0635,0.116417 0.0635,0.656165 v 5.03765 c 0,0.539749 0,0.560915 -0.0635,0.656165 -0.084666,0.105833 -0.2857491,0.148166 -0.8889972,0.148166 H 2.4793357 v 0.497415 h 6.498146 L 9.1891477,15.49262 H 8.7234825 C 8.3213171,17.376448 7.8874018,17.778613 6.268157,17.820946 H 5.5696592 C 4.9346612,17.79978 4.7759117,17.693947 4.8076616,17.312948 v -2.698742 h 0.211666 c 1.0900799,-0.04233 1.481662,0.349249 1.5239952,1.523996 H 7.0407379 V 12.666879 H 6.5433228 c -0.0635,1.037164 -0.4762485,1.449912 -1.481662,1.449912 H 4.8076616 v -2.412992 c -0.010583,-0.444499 0.09525,-0.518582 0.6667479,-0.529165 h 0.5503316 c 1.7356611,-0.01058 2.1695764,0.370416 2.508242,2.201326 H 8.988065 Z"
         style="font-style:normal;font-variant:normal;font-weight:normal;font-stretch:normal;font-family:C059;-inkscape-font-specification:C059;stroke-width:0.264583;fill:#039200;fill-opacity:1"
         id="path1527" />
    </g>
    <g
       aria-label="A"
       id="text1501"
       style="font-style:normal;font-weight:normal;font-size:10.5833px;line-height:1.25;font-family:sans-serif;fill:#d27200;fill-opacity:1;stroke:none;stroke-width:0.264583">
      <path
         d="m 15.168743,10.529053 h -0.444499 l -2.434158,6.170063 c -0.28575,0.825498 -0.560915,1.079497 -1.164163,1.12183 h -0.04233 v 0.497415 h 2.804575 v -0.497415 h -0.211666 c -0.571498,0 -0.857247,-0.201082 -0.857247,-0.603248 0,-0.137583 0.03175,-0.264582 0.09525,-0.444498 l 0.349249,-0.931331 h 2.804575 l 0.571498,1.418162 c 0.0635,0.169333 0.08467,0.232833 0.08467,0.285749 0,0.169333 -0.264582,0.275166 -0.656164,0.275166 h -0.444499 v 0.497415 h 3.280823 V 17.820946 H 18.756482 C 18.20615,17.810363 18.1109,17.746863 17.867484,17.143615 Z m -0.518582,1.735661 1.195913,3.005657 h -2.370659 z"
         style="font-style:normal;font-variant:normal;font-weight:normal;font-stretch:normal;font-family:C059;-inkscape-font-specification:C059;stroke-width:0.264583;fill:#d27200;fill-opacity:1"
         id="path1530" />
    </g>
  </g>
</svg>
